# xmcd
#
# Track frame offsets:
#	150
#	21069
#	32653
#	51668
#	71205
#	86478
#	101578
#	116354
#	131095
#	149489
#	168195
#	182119
#	196985
#	209029
#	226710
#	243988
#	258812
#
# Disc length: 3700 seconds
#
# Revision: 1
# Processed by: cddbd v1.5.2PL0 Copyright (c) Steve Scherf et al.
# Submitted via: audiograbber 1.83.01
#
DISCID=f20e7211
DTITLE=Pinchitos Caliente - PARA LA VIDA
DYEAR=1900
DGENRE=
TTITLE0=Adios mi amor
TTITLE1=La Cantina
TTITLE2=Oh it`s you
TTITLE3=Bonita es el Espanol
TTITLE4=Chiquita
TTITLE5=Did I ask you to dance
TTITLE6=Rosa Maria
TTITLE7=Estoy sentado aqui
TTITLE8=Serenata  Nortena
TTITLE9=My special prayer
TTITLE10=This could be the one
TTITLE11=Nuevo Laredo
TTITLE12=La Manzanita
TTITLE13=Moonlight dance
TTITLE14=She`s about a mover
TTITLE15=Porompompero
TTITLE16=Livin it down
EXTD=
EXTT0=
EXTT1=
EXTT2=
EXTT3=
EXTT4=
EXTT5=
EXTT6=
EXTT7=
EXTT8=
EXTT9=
EXTT10=
EXTT11=
EXTT12=
EXTT13=
EXTT14=
EXTT15=
EXTT16=
PLAYORDER=
